<?xml version="1.0" encoding="UTF-8"?>
<svg width="1440px" height="1024px" viewBox="0 0 1440 1024" version="1.1" xmlns="http://www.w3.org/2000/svg" xmlns:xlink="http://www.w3.org/1999/xlink">
    <!-- Generator: Sketch 49 (51002) - http://www.bohemiancoding.com/sketch -->
    <title>Spaceship</title>
    <desc>Created with Sketch.</desc>
    <defs>
        <linearGradient x1="50%" y1="100%" x2="50%" y2="0%" id="linearGradient-1">
            <stop stop-color="#2E65C8" offset="0%"></stop>
            <stop stop-color="#000000" offset="100%"></stop>
        </linearGradient>
        <linearGradient x1="50%" y1="0%" x2="50%" y2="100%" id="linearGradient-2">
            <stop stop-color="#FFFFFF" stop-opacity="0" offset="0%"></stop>
            <stop stop-color="#FFFFFF" stop-opacity="0.661203578" offset="100%"></stop>
        </linearGradient>
    </defs>
    <g id="Page-1" stroke="none" stroke-width="1" fill="none" fill-rule="evenodd">
        <g id="Desktop-HD">
            <g id="Spaceship">
                <path d="M1440,730 L1440,1024 L0,1024 L0,730 L0,0 L30,0 L1430,-4.61852778e-14 L1440,0 L1440,730 Z M1410,718.524893 L1410,30 L30,30 L30,718.524893 C154.022757,676.449796 384.022757,655.412247 720,655.412247 C1055.97724,655.412247 1285.97724,676.449796 1410,718.524893 Z" id="Combined-Shape" fill="url(#linearGradient-1)"></path>
                <path d="M33,739.993265 C143.211685,694.664422 373.711685,672 724.5,672 C1075.28832,672 1305.78832,694.664422 1416,739.993265 L1416,1008 L33,1008 L33,739.993265 Z" id="Rectangle" fill="url(#linearGradient-2)" style="mix-blend-mode: overlay;"></path>
                <circle id="Oval" fill="#F26666" cx="616.5" cy="733.5" r="24.5"></circle>
                <circle id="Oval" fill="#F266B7" cx="685.5" cy="733.5" r="24.5"></circle>
                <circle id="Oval" fill="#FFFFFF" cx="754.5" cy="733.5" r="24.5"></circle>
                <circle id="Oval" fill="#98F266" cx="823.5" cy="733.5" r="24.5"></circle>
            </g>
        </g>
    </g>
</svg>