<?xml version="1.0" encoding="UTF-8"?>
<svg width="1000px" height="1000px" viewBox="0 0 1000 1000" version="1.1" xmlns="http://www.w3.org/2000/svg" xmlns:xlink="http://www.w3.org/1999/xlink">
    <!-- Generator: Sketch 49.1 (51147) - http://www.bohemiancoding.com/sketch -->
    <title>Artboard 3</title>
    <desc>Created with Sketch.</desc>
    <defs></defs>
    <g id="Artboard-3" stroke="none" stroke-width="1" fill="none" fill-rule="evenodd">
        <path d="M500,962 C244.844446,962 38,755.155554 38,500 C38,244.844446 244.844446,38 500,38 C755.155554,38 962,244.844446 962,500 C962,755.155554 755.155554,962 500,962 Z M246.6,615.6 C223.399884,615.6 204.80007,613.200024 190.8,608.4 C176.79993,603.599976 166.600032,600.000012 160.2,597.6 L150,645.6 C155.600028,648.000012 166.199922,651.499977 181.8,656.1 C197.400078,660.700023 218.999862,663 246.6,663 C286.200198,663 316.699893,655.600074 338.1,640.8 C359.500107,625.999926 370.2,604.200144 370.2,575.4 C370.2,560.599926 368.000022,548.100051 363.6,537.9 C359.199978,527.699949 352.900041,519.000036 344.7,511.8 C336.499959,504.599964 326.600058,498.300027 315,492.9 C303.399942,487.499973 290.200074,482.000028 275.4,476.4 C264.199944,472.39998 254.60004,468.600018 246.6,465 C238.59996,461.399982 231.900027,457.500021 226.5,453.3 C221.099973,449.099979 217.100013,444.400026 214.5,439.2 C211.899987,433.999974 210.6,428.000034 210.6,421.2 C210.6,407.999934 216.399942,398.300031 228,392.1 C239.600058,385.899969 253.199922,382.8 268.8,382.8 C286.80009,382.8 302.199936,384.499983 315,387.9 C327.800064,391.300017 337.19997,394.599984 343.2,397.8 L353.4,349.8 C350.199984,348.599994 345.700029,347.200008 339.9,345.6 C334.099971,343.999992 327.400038,342.500007 319.8,341.1 C312.199962,339.699993 304.000044,338.500005 295.2,337.5 C286.399956,336.499995 277.600044,336 268.8,336 C233.599824,336 205.800102,344.099919 185.4,360.3 C164.999898,376.500081 154.8,398.399862 154.8,426 C154.8,440.00007 157.199976,451.799952 162,461.4 C166.800024,471.000048 173.19996,479.199966 181.2,486 C189.20004,492.800034 198.699945,498.699975 209.7,503.7 C220.700055,508.700025 232.19994,513.599976 244.2,518.4 C269.000124,528.40005 286.799946,537.39996 297.6,545.4 C308.400054,553.40004 313.8,564.199932 313.8,577.8 C313.8,591.000066 308.300055,600.59997 297.3,606.6 C286.299945,612.60003 269.400114,615.6 246.6,615.6 Z M696.866,655.8 L745.466,655.8 C763.866092,614.599794 781.865912,567.600264 799.466,514.8 C817.066088,461.999736 833.665922,405.000306 849.266,343.8 L791.666,343.8 C787.66598,362.600094 782.866028,382.99989 777.266,405 C771.665972,427.00011 765.666032,448.99989 759.266,471 C752.865968,493.00011 746.366033,514.199898 739.766,534.6 C733.165967,555.000102 726.86603,572.799924 720.866,588 C714.065966,569.199906 707.366033,549.300105 700.766,528.3 C694.165967,507.299895 687.86603,486.100107 681.866,464.7 C675.86597,443.299893 670.266026,422.300103 665.066,401.7 C659.865974,381.099897 655.466018,361.80009 651.866,343.8 L605.666,343.8 C601.66598,361.80009 596.966027,381.099897 591.566,401.7 C586.165973,422.300103 580.46603,443.299893 574.466,464.7 C568.46597,486.100107 562.166033,507.299895 555.566,528.3 C548.965967,549.300105 542.266034,569.199906 535.466,588 C529.46597,572.799924 523.066034,555.000102 516.266,534.6 C509.465966,514.199898 502.966031,493.00011 496.766,471 C490.565969,448.99989 484.666028,427.00011 479.066,405 C473.465972,382.99989 468.66602,362.600094 464.666,343.8 L404.666,343.8 C420.266078,405.000306 436.865912,461.999736 454.466,514.8 C472.066088,567.600264 490.065908,614.599794 508.466,655.8 L557.066,655.8 C568.266056,626.999856 580.065938,594.100185 592.466,557.1 C604.866062,520.099815 616.265948,481.6002 626.666,441.6 C637.066052,481.6002 648.565937,520.099815 661.166,557.1 C673.766063,594.100185 685.665944,626.999856 696.866,655.8 Z" id="Combined-Shape" fill="#3443AE"></path>
    </g>
</svg>