<?xml version="1.0" encoding="UTF-8"?>
<svg width="1000px" height="1000px" viewBox="0 0 1000 1000" version="1.1" xmlns="http://www.w3.org/2000/svg" xmlns:xlink="http://www.w3.org/1999/xlink">
    <!-- Generator: Sketch 49.1 (51147) - http://www.bohemiancoding.com/sketch -->
    <title>Artboard 3</title>
    <desc>Created with Sketch.</desc>
    <defs></defs>
    <g id="Artboard-3" stroke="none" stroke-width="1" fill="none" fill-rule="evenodd">
        <circle id="Oval" fill="#3443AE" cx="500" cy="500" r="462"></circle>
        <path d="M246.6,615.6 C269.400114,615.6 286.299945,612.60003 297.3,606.6 C308.300055,600.59997 313.8,591.000066 313.8,577.8 C313.8,564.199932 308.400054,553.40004 297.6,545.4 C286.799946,537.39996 269.000124,528.40005 244.2,518.4 C232.19994,513.599976 220.700055,508.700025 209.7,503.7 C198.699945,498.699975 189.20004,492.800034 181.2,486 C173.19996,479.199966 166.800024,471.000048 162,461.4 C157.199976,451.799952 154.8,440.00007 154.8,426 C154.8,398.399862 164.999898,376.500081 185.4,360.3 C205.800102,344.099919 233.599824,336 268.8,336 C277.600044,336 286.399956,336.499995 295.2,337.5 C304.000044,338.500005 312.199962,339.699993 319.8,341.1 C327.400038,342.500007 334.099971,343.999992 339.9,345.6 C345.700029,347.200008 350.199984,348.599994 353.4,349.8 L343.2,397.8 C337.19997,394.599984 327.800064,391.300017 315,387.9 C302.199936,384.499983 286.80009,382.8 268.8,382.8 C253.199922,382.8 239.600058,385.899969 228,392.1 C216.399942,398.300031 210.6,407.999934 210.6,421.2 C210.6,428.000034 211.899987,433.999974 214.5,439.2 C217.100013,444.400026 221.099973,449.099979 226.5,453.3 C231.900027,457.500021 238.59996,461.399982 246.6,465 C254.60004,468.600018 264.199944,472.39998 275.4,476.4 C290.200074,482.000028 303.399942,487.499973 315,492.9 C326.600058,498.300027 336.499959,504.599964 344.7,511.8 C352.900041,519.000036 359.199978,527.699949 363.6,537.9 C368.000022,548.100051 370.2,560.599926 370.2,575.4 C370.2,604.200144 359.500107,625.999926 338.1,640.8 C316.699893,655.600074 286.200198,663 246.6,663 C218.999862,663 197.400078,660.700023 181.8,656.1 C166.199922,651.499977 155.600028,648.000012 150,645.6 L160.2,597.6 C166.600032,600.000012 176.79993,603.599976 190.8,608.4 C204.80007,613.200024 223.399884,615.6 246.6,615.6 Z M696.866,655.8 C685.665944,626.999856 673.766063,594.100185 661.166,557.1 C648.565937,520.099815 637.066052,481.6002 626.666,441.6 C616.265948,481.6002 604.866062,520.099815 592.466,557.1 C580.065938,594.100185 568.266056,626.999856 557.066,655.8 L508.466,655.8 C490.065908,614.599794 472.066088,567.600264 454.466,514.8 C436.865912,461.999736 420.266078,405.000306 404.666,343.8 L464.666,343.8 C468.66602,362.600094 473.465972,382.99989 479.066,405 C484.666028,427.00011 490.565969,448.99989 496.766,471 C502.966031,493.00011 509.465966,514.199898 516.266,534.6 C523.066034,555.000102 529.46597,572.799924 535.466,588 C542.266034,569.199906 548.965967,549.300105 555.566,528.3 C562.166033,507.299895 568.46597,486.100107 574.466,464.7 C580.46603,443.299893 586.165973,422.300103 591.566,401.7 C596.966027,381.099897 601.66598,361.80009 605.666,343.8 L651.866,343.8 C655.466018,361.80009 659.865974,381.099897 665.066,401.7 C670.266026,422.300103 675.86597,443.299893 681.866,464.7 C687.86603,486.100107 694.165967,507.299895 700.766,528.3 C707.366033,549.300105 714.065966,569.199906 720.866,588 C726.86603,572.799924 733.165967,555.000102 739.766,534.6 C746.366033,514.199898 752.865968,493.00011 759.266,471 C765.666032,448.99989 771.665972,427.00011 777.266,405 C782.866028,382.99989 787.66598,362.600094 791.666,343.8 L849.266,343.8 C833.665922,405.000306 817.066088,461.999736 799.466,514.8 C781.865912,567.600264 763.866092,614.599794 745.466,655.8 L696.866,655.8 Z" id="sw" fill="#FFFFFF"></path>
    </g>
</svg>