<svg version="1" xmlns="http://www.w3.org/2000/svg" width="933.333" height="933.333" viewBox="0 0 700.000000 700.000000"><path d="M347.8 26.5c-.2.1-6.6.5-14.3.8-12.2.5-31.8 2.6-39.5 4.2-1.4.3-4 .8-5.9 1.1-12.8 2.1-34.5 8.2-51.6 14.6-11.8 4.3-44.5 19.9-50.8 24.2-2.1 1.4-4 2.6-4.2 2.6-.8 0-16.3 10.6-25.2 17.1-16.5 12.2-38.4 32.6-51.3 47.9-3 3.6-5.7 6.7-6 7-2.3 2.1-16.8 22.6-23.3 32.9-11.6 18.5-28 52.7-31.2 65.1-.3 1.4-1.5 4.7-2.5 7.5-2.4 6.5-6.5 21.9-8.5 32-7.4 36.4-8.7 73.2-4 109 .8 6 1.7 12.1 2 13.5.3 1.4.8 4.1 1.1 6 .3 1.9 1 5.3 1.6 7.5.5 2.2 1.2 5.1 1.4 6.5 1.1 5.9 4.9 18.4 10.6 34.5 9.1 25.4 23.2 52.3 40.7 77.6 2.5 3.5 4.7 6.6 5.1 6.9.3.3 2.1 2.5 4 5 14.7 19.4 42.3 46.1 62.5 60.4 4.4 3.2 8.7 6.3 9.6 7 5.8 4.8 33 20 48.4 27.1 16.3 7.5 45.4 17.6 57.5 19.9 1.4.3 6.7 1.4 11.8 2.5 5.1 1.1 11.1 2.3 13.5 2.6 2.3.2 6 .7 8.2 1 2.2.3 5.6.7 7.5 1 20.3 2.8 56.7 2.1 82-1.6 3.6-.5 8.1-1.2 10-1.5 1.9-.2 6.4-1.2 10-2 3.6-.9 7.4-1.7 8.5-1.9 8-1.6 33-9.5 45.5-14.5 6.5-2.5 33.3-15.2 34-16 .3-.4 3.4-2.2 7-4.2 15.3-8.5 35.9-23.2 51-36.6 40.1-35.4 70.4-79 89.1-128 3.9-10.1 10.6-31.4 11.5-36.2.3-1.4 1.1-5 1.9-8 .8-3 1.7-7.5 2-10 .4-2.4.8-4.7 1-5 .6-1 3.2-21.9 4-32 .6-7.1.6-41.3.1-47-1.3-13.5-1.7-17.9-2.1-20.5-.3-1.7-.7-4.6-1-6.5-.2-1.9-.7-4.6-1-6-.3-1.4-.8-4.1-1.1-6-.3-1.9-1.2-6-2-9.1-.7-3-1.5-6.4-1.7-7.5-1.5-7.9-10-33.4-15.4-46.4-6.1-14.3-13.3-28.4-21-41-3.5-5.8-6.9-11.4-7.6-12.5-2.2-3.6-15.1-21-19.7-26.5-32.8-39.7-75.8-72.2-121-91.5-3.6-1.5-8-3.4-9.9-4.2-10.8-4.8-43.8-14.4-57.6-16.8-2.2-.4-4.9-.9-6-1.1-1.1-.2-3.2-.5-4.6-.8-1.5-.2-5.3-.7-8.5-1.1-3.3-.4-7-.9-8.4-1.1-1.4-.2-8.1-.6-15-1-6.9-.3-14.4-.7-16.7-.9-2.3-.1-4.3-.1-4.5 0zM208.2 236.4c2.7.4 7.9 1.2 14.1 2.2 4.9.8 19.1 4.2 22.1 5.4 2.4.9 2.8 1.5 2.3 3.8-.3 1.5-1.8 8.3-3.3 15.2-1.4 6.9-2.7 13.1-2.7 13.7 0 1.7-.6 1.6-6.3-.6-13.9-5.4-23.8-7.2-41.9-7.6-12.5-.3-14.9-.1-22.5 2.1-15.4 4.5-22.2 12.1-22.3 24.6 0 8 2.5 13.7 8.5 19.6 5.4 5.4 13.1 9.3 37.8 19.2 23.3 9.4 31.6 13.3 40.1 19.1 12.5 8.5 20.1 19.2 23.4 33.2 2.2 9.3 1.4 28.3-1.5 36.7-7.5 22-28.4 35.5-61 39.8-7 .9-40.4.9-49 0-9.6-1-37.7-8.5-40.2-10.7-.4-.3.6-6.9 2.3-14.6 1.6-7.7 3.1-14.9 3.3-15.9.1-1.1.8-2.2 1.3-2.3.6-.2 5.8 1.2 11.4 3.2 19.8 7 25.5 7.9 47.4 7.9 19.2 0 24.9-.8 34-4.9 9.7-4.4 13.8-10.7 13.8-21.5 0-4.6-.7-7.9-2.3-11.2-5-10.7-13.7-16.2-51-32-32.2-13.7-40.6-19.2-49.2-32.3-6.9-10.6-9.5-24.7-7.5-41.1 1.6-13.5 10.6-27.8 23.2-37.3 5.5-4.1 18.8-9.9 26.6-11.7 11.9-2.7 37.5-3.7 49.1-2zm115.9 4.5c1.1.1 1.9 1.4 2.3 3.8 2.1 11.8 13.9 58.4 22.7 89.3 10.6 37.1 25.1 79.1 26.3 76 1.8-5.1 15.8-47.7 17.5-53.5 1.2-3.9 3.5-11.7 5.2-17.5 2.4-8.4 11.6-41.1 13.4-48 1.2-4.7 5.7-22.7 6-24 .2-.8 1.7-7.1 3.5-14l3.1-12.5 16 .1c8.8.1 16.1.3 16.2.5.2.2 1.8 7.2 3.5 15.5 1.8 8.4 6.2 26.1 9.8 39.5 3.6 13.4 6.7 25.2 6.9 26.1 1.9 8.8 26.6 87.2 28 88.6.2.2 1.1-1.8 2-4.5 1-2.6 2.3-6.2 3-7.8 1.1-2.6 6.5-18.9 14-42.5 3-9.4 8.8-29.2 12.5-43 1.6-5.8 3.6-13.2 4.5-16.5 1-3.3 1.9-6.7 2-7.5.2-.8 1.1-4 1.9-7.2.8-3.1 1.7-6.7 2-8 .2-1.2.9-4.3 1.6-6.8.7-2.5 1.4-5.5 1.6-6.8 1.4-7.3 4.5-18.6 5.3-19.1.5-.3 8.5-.5 17.8-.4 22.9.2 22.5.2 21.8 1.3-.3.5-2.9 9.4-5.7 19.7-2.8 10.4-6.1 22.6-7.3 27.3-7.4 27.2-27.5 89.8-35 109-.8 1.9-3.7 9.3-6.4 16.5-4.7 12.2-14.3 35.6-17.1 41.7l-1.3 2.8h-17.4c-11.8 0-17.3-.3-17.3-1.1 0-.6-2.3-7.2-5.1-14.7-15.5-41-37.6-109.3-41.5-128.1-1-4.9-2.1-5.7-3-2-.4 1.9-.8 3.6-.9 3.9 0 .3-2 7.5-4.4 16-9.6 34.3-22.6 73.6-36.5 111l-5.4 14.5h-34.5l-3.9-9c-10.2-23.6-24.1-60.3-33.3-88-9.5-28.8-24.1-77.3-27.5-91.5-1.6-7-7.2-27.5-7.6-28.1-.2-.4 0-.9.6-1.1.8-.2 35.2-.2 40.1.1z"/></svg>