<?xml version="1.0" encoding="UTF-8"?>
<svg width="1000px" height="1000px" viewBox="0 0 1000 1000" version="1.1" xmlns="http://www.w3.org/2000/svg" xmlns:xlink="http://www.w3.org/1999/xlink">
    <!-- Generator: Sketch 49 (51002) - http://www.bohemiancoding.com/sketch -->
    <title>Artboard</title>
    <desc>Created with Sketch.</desc>
    <defs></defs>
    <g id="Artboard" stroke="none" stroke-width="1" fill="none" fill-rule="evenodd">
        <g id="Group-2" transform="translate(525.407922, 463.412973) rotate(-15.000000) translate(-525.407922, -463.412973) translate(6.407922, 84.412973)" fill="#000000" fill-rule="nonzero">
            <g id="Group" transform="translate(0.000000, 205.000000)">
                <path d="M516.953543,239.130435 L111.530647,239.130435 C110.701475,239.130435 109.914465,239.270991 109.1134,239.383437 C43.6790891,241.224729 0,285.134639 0,349.818828 C0,399.56184 40.8402294,440 91.0964786,440 C133.55289,440 169.544572,405.788502 169.544572,365.322231 C169.544572,329.297551 144.978598,303.11184 111.165249,303.11184 C83.0015123,303.11184 61.7522257,326.008525 61.7522257,356.340658 C61.7522257,363.747996 67.7953429,369.820045 75.1454599,369.820045 C82.608007,369.820045 88.7354467,363.747996 88.7354467,356.340658 C88.7354467,343.240775 95.5936821,330.084669 111.165249,330.084669 C132.87831,330.084669 142.589459,347.780756 142.589459,365.322231 C142.589459,391.212773 118.922925,413.041227 91.0964786,413.041227 C55.0626355,413.041227 26.9551135,385.225058 26.9551135,349.818828 C26.9551135,309.436891 49.6519375,266.285987 113.357636,266.285987 C113.877625,266.285987 114.285184,266.187598 114.819227,266.131375 L516.855167,266.131375 C524.289607,266.131375 530.332724,260.073382 530.332724,252.651988 C530.402993,245.216539 524.387983,239.130435 516.953543,239.130435 Z" id="Shape"></path>
                <path d="M674.371809,173.907019 L272.466615,173.907019 C271.946777,173.850788 271.455038,173.710212 270.9352,173.710212 C207.304192,173.710212 184.599906,130.581384 184.599906,90.1656793 C184.599906,54.7263782 212.755468,26.9906617 248.708604,26.9906617 C276.611272,26.9906617 300.186637,48.8081133 300.186637,74.6741641 C300.186637,92.2180942 290.506407,109.944774 268.799649,109.944774 C253.27475,109.944774 246.348257,96.7587107 246.348257,83.6710513 C246.348257,76.262677 240.306894,70.1616628 232.874613,70.1616628 C225.442331,70.1616628 219.372868,76.262677 219.372868,83.6710513 C219.372868,113.993373 240.644087,136.879205 268.799649,136.879205 C302.603183,136.879205 327.133927,110.746059 327.133927,74.6741641 C327.133927,34.2022291 291.208891,0 248.708604,0 C198.523141,0 157.666667,40.4719349 157.666667,90.1656793 C157.666667,154.887037 201.290928,198.81715 266.748395,200.616528 C267.605426,200.757104 268.336009,200.869565 269.16494,200.869565 L674.526355,200.869565 C681.902438,200.869565 688,194.796666 688,187.416407 C687.845454,179.96586 681.80409,173.907019 674.371809,173.907019 Z" id="Shape"></path>
            </g>
            <path d="M343.26599,326.752114 C329.152693,312.986067 333.560858,299.384927 353.064303,296.52417 L509.615104,273.616609 C529.118548,270.763022 552.277545,253.992823 561.086708,236.355075 L633.179925,92.2847956 C641.895908,74.5968599 656.21707,74.5681806 664.997562,92.2202673 L737.915071,236.261868 C746.795912,253.863766 770.019418,270.590946 789.522862,273.437363 L945.923141,296.366434 C965.426585,299.234361 969.849086,312.857011 955.750124,326.637397 L841.309847,439.956336 C827.296898,453.82276 818.573748,481.060891 821.928255,500.491092 L848.807312,656.197983 C852.161819,675.628184 840.593072,684.067057 823.118101,674.947051 L679.505086,601.313042 C661.97994,592.293414 633.366287,592.44398 615.934322,601.635684 L476.29224,675.269693 C458.845939,684.461397 447.262857,676.072712 450.538518,656.628172 L476.586118,497.752222 C479.790101,478.300512 470.859086,451.134079 456.724286,437.382373 L343.26599,326.752114 Z" id="Shape" transform="translate(649.500000, 379.000000) rotate(17.000000) translate(-649.500000, -379.000000) "></path>
        </g>
    </g>
</svg>