<?xml version="1.0" standalone="no"?>
<!DOCTYPE svg PUBLIC "-//W3C//DTD SVG 20010904//EN"
 "http://www.w3.org/TR/2001/REC-SVG-20010904/DTD/svg10.dtd">
<svg version="1.0" xmlns="http://www.w3.org/2000/svg"
 width="700.000000pt" height="700.000000pt" viewBox="0 0 700.000000 700.000000"
 preserveAspectRatio="xMidYMid meet">
<metadata>
Created by potrace 1.11, written by Peter Selinger 2001-2013
</metadata>
<g transform="translate(0.000000,700.000000) scale(0.100000,-0.100000)"
fill="#000000" stroke="none">
<path d="M4585 6078 c-40 -23 -60 -55 -220 -353 -21 -38 -50 -92 -65 -120 -15
-27 -42 -77 -60 -110 -18 -33 -44 -80 -58 -105 -13 -25 -64 -118 -113 -207
-132 -243 -145 -260 -254 -335 -82 -57 -150 -78 -295 -93 -30 -3 -66 -8 -80
-10 -14 -2 -56 -6 -95 -10 -38 -3 -81 -8 -95 -10 -14 -2 -50 -6 -80 -10 -30
-3 -71 -8 -90 -10 -19 -2 -60 -7 -90 -10 -30 -3 -71 -8 -90 -10 -19 -2 -62 -7
-95 -10 -33 -3 -78 -8 -100 -11 -22 -3 -56 -7 -75 -8 -157 -16 -191 -25 -227
-58 -26 -24 -30 -78 -10 -115 14 -25 67 -82 327 -353 103 -107 232 -242 286
-299 55 -57 120 -126 146 -152 l48 -47 -33 -11 c-17 -5 -160 -44 -317 -86
-157 -42 -316 -85 -355 -95 -108 -30 -228 -62 -245 -65 -8 -2 -58 -16 -110
-30 -52 -15 -102 -28 -110 -30 -8 -2 -37 -9 -65 -15 -27 -7 -91 -14 -140 -16
-165 -6 -288 39 -395 146 -103 103 -169 246 -175 381 -10 204 107 372 306 439
218 74 453 -68 464 -280 6 -112 -42 -192 -134 -225 -56 -19 -84 -19 -124 1
-43 22 -60 44 -88 108 -38 86 -110 113 -163 60 -38 -38 -38 -80 0 -160 70
-149 233 -237 380 -204 122 27 226 107 276 210 30 63 39 96 43 163 12 173 -76
342 -230 444 -96 63 -154 81 -285 90 -220 14 -441 -114 -557 -324 -57 -102
-75 -174 -77 -298 -1 -97 8 -147 43 -244 40 -109 97 -202 169 -278 68 -71 107
-100 189 -141 108 -55 202 -76 338 -75 139 1 180 9 510 99 132 37 247 67 255
69 19 4 341 90 430 116 36 10 76 20 90 23 14 3 65 16 115 30 49 14 91 24 92
22 1 -1 9 -29 16 -62 16 -66 17 -189 2 -202 -6 -5 -100 -32 -210 -61 -110 -29
-229 -61 -265 -71 -36 -11 -117 -32 -180 -49 -141 -36 -281 -74 -694 -186
-175 -47 -362 -97 -415 -111 -599 -157 -649 -175 -784 -266 -259 -176 -366
-484 -281 -811 52 -203 203 -369 397 -437 76 -27 101 -31 197 -35 203 -8 377
73 491 230 75 102 109 209 103 325 -11 233 -167 416 -371 434 -165 15 -308
-63 -370 -202 -44 -97 -34 -275 17 -307 31 -19 69 -22 98 -8 41 20 56 60 48
129 -12 103 26 171 109 193 82 21 151 2 208 -57 75 -78 95 -226 45 -334 -44
-94 -151 -183 -250 -205 -41 -9 -183 -10 -221 -1 -60 15 -140 59 -191 108 -98
92 -146 219 -147 389 -3 244 139 430 396 520 50 17 484 135 830 226 50 13 131
35 180 49 106 28 241 65 415 111 69 18 204 54 300 80 96 26 222 60 280 75 58
16 131 35 163 44 32 9 59 16 61 16 1 0 -4 -30 -11 -67 -8 -38 -20 -99 -28
-138 -7 -38 -15 -80 -18 -91 -3 -12 -8 -37 -11 -55 -3 -19 -12 -67 -20 -106
-9 -40 -18 -87 -21 -105 -3 -18 -10 -49 -15 -68 -5 -19 -11 -51 -14 -70 -6
-36 -12 -67 -21 -110 -10 -46 -21 -115 -19 -127 1 -7 2 -21 3 -32 0 -10 13
-30 28 -45 22 -22 35 -27 67 -25 23 2 48 6 56 10 8 5 58 28 110 53 52 24 181
85 285 136 105 51 246 119 315 152 69 34 164 80 211 103 140 69 202 87 300 87
95 0 187 -20 245 -53 22 -12 98 -54 169 -94 72 -40 288 -160 482 -268 193
-108 371 -202 395 -208 36 -10 50 -9 73 2 51 24 62 89 40 234 -23 160 -41 293
-51 370 -2 22 -6 51 -9 65 -5 28 -12 83 -20 150 -3 25 -7 56 -10 70 -3 14 -7
45 -10 70 -8 67 -17 132 -21 155 -33 169 -18 301 48 426 31 60 73 107 184 209
123 113 295 273 365 338 38 35 77 71 87 80 159 138 331 309 334 331 0 9 2 23
3 31 5 45 -43 90 -110 104 -16 3 -41 9 -55 12 -14 3 -34 7 -45 9 -11 1 -38 6
-60 10 -22 4 -98 18 -170 31 -71 14 -143 27 -160 30 -26 4 -187 33 -270 49
-16 3 -68 12 -115 21 -47 8 -92 17 -100 19 -8 2 -35 7 -60 10 -135 18 -249 79
-348 185 -26 27 -182 323 -182 344 0 3 -22 51 -49 108 -27 57 -58 123 -69 148
-184 405 -264 567 -294 593 -34 29 -70 34 -103 15z"/>
</g>
</svg>
